<?xml version="1.0" encoding="UTF-8"?> <svg xmlns="http://www.w3.org/2000/svg" viewBox="0 0 72.48 72.48"> <defs> <style>.cls-1{fill:#191919;}.cls-2{fill:#fddd09;}</style> </defs> <title>Asset 3</title> <g id="Layer_2" data-name="Layer 2"> <g id="Logo_background" data-name="Logo+background"> <g id="java"> <rect class="cls-1" width="72.48" height="72.48" rx="11.34"></rect> <path class="cls-2" d="M29.28,51.29a.25.25,0,0,0,.1-.31.26.26,0,0,0-.3-.15c-1.7.48-2.64,1.09-2.79,1.81A1.34,1.34,0,0,0,26.92,54c1.23,1,4.47,1.88,8.39,1.88a25.15,25.15,0,0,0,9.77-1.92.25.25,0,0,0,.15-.23.24.24,0,0,0-.16-.23,19.83,19.83,0,0,1-3-1.45.23.23,0,0,0-.18,0,30.94,30.94,0,0,1-11.25.48c-1.74-.2-1.87-.57-1.87-.61S29.06,51.42,29.28,51.29Z"></path> <path class="cls-2" d="M46.2,47.87a.27.27,0,0,0-.17-.25,6.21,6.21,0,0,1-2.16-1.31.26.26,0,0,0-.22-.07,44.46,44.46,0,0,1-14.55.7c-1.46-.15-1.71-.52-1.75-.67-.09-.32.39-.8.64-1a.24.24,0,0,0,.07-.31.24.24,0,0,0-.3-.12c-2.32.77-3.36,1.62-3.07,2.54.43,1.38,4.36,2.37,9.51,2.37A42.93,42.93,0,0,0,46,48.1.26.26,0,0,0,46.2,47.87Z"></path> <path class="cls-2" d="M36.46,27.9c-.71,2.25,0,4.67,2.23,7.18a3.43,3.43,0,0,1,.94,2.55A4.78,4.78,0,0,1,38,40.5a.25.25,0,0,0-.05.33.26.26,0,0,0,.21.11.25.25,0,0,0,.12,0c.15-.08,3.77-2,4.45-4.8A4,4,0,0,0,42,32.76l-.37-.51c-1.18-1.64-2.11-2.93-1.79-4.41.42-2,3.18-4.35,8.93-7.69a.24.24,0,0,0,.11-.31.26.26,0,0,0-.29-.15C48.18,19.8,38.22,22.34,36.46,27.9Z"></path> <path class="cls-2" d="M54.3,56.85c.13-.42,0-1-1.16-1.57a.24.24,0,0,0-.31.09.25.25,0,0,0,.05.33.71.71,0,0,1,.27.63c0,.25-.36.73-1.89,1.19-5.92,1.8-25.44,2.5-31,.09-.31-.14-.41-.26-.41-.33,0-.42,1.84-1.17,3.23-1.47a7.34,7.34,0,0,1,1.81-.21.24.24,0,0,0,.26-.16.26.26,0,0,0-.09-.29c-1.4-1-6,.27-8,1.58-.88.58-1.26,1.15-1.15,1.7S17,59.6,18.86,59.9a93.61,93.61,0,0,0,14.93,1.21C45.35,61.11,53.7,58.85,54.3,56.85Z"></path> <path class="cls-2" d="M31.38,43.92A61.78,61.78,0,0,0,45.6,42.45l.07,0a17.25,17.25,0,0,1,2.46-1.31.24.24,0,0,0,.14-.3.25.25,0,0,0-.28-.18s-4.17.74-8.22,1.09a74.51,74.51,0,0,1-13.1.14c-1.88-.25-2-.59-2-.59,0-.44,2.55-1.44,5.49-2.14a.24.24,0,0,0,.19-.27.22.22,0,0,0-.23-.22,18.7,18.7,0,0,0-8.73,2.06c-.91.43-1.28.89-1.1,1.37C20.79,43.28,25.68,43.92,31.38,43.92Z"></path> <path class="cls-2" d="M48.83,39.55a.25.25,0,0,0,.29.07,7.93,7.93,0,0,1,1.13-.3,3.22,3.22,0,0,1,3.57,2c.8,2.24-1.42,5-5.94,7.33a.24.24,0,0,0-.12.14,1,1,0,0,1-.14.17.23.23,0,0,0,0,.3.24.24,0,0,0,.22.14h.06c6.75-1.78,8.39-4.64,8.77-6.19a3.8,3.8,0,0,0-1.2-3.82,5.55,5.55,0,0,0-5.6-.87,2.08,2.08,0,0,0-1,.78A.24.24,0,0,0,48.83,39.55Z"></path> <path class="cls-2" d="M36.24,39a.28.28,0,0,0,.17.07.3.3,0,0,0,.15-.05.26.26,0,0,0,.08-.31,19.65,19.65,0,0,0-1.91-3.1c-2.49-3.55-4.84-6.9,1.84-12.18,4.41-3.48,6.74-6.91,6.93-10.17A6.27,6.27,0,0,0,42,8.58a.27.27,0,0,0-.3,0,.26.26,0,0,0-.12.28C43.05,14.69,39,17.88,35.05,21A23.65,23.65,0,0,0,29.76,26C27,30.11,31.27,34.48,36.24,39Z"></path> <path class="cls-2" d="M56.57,58.05a.25.25,0,0,0-.29.14s-.86,1.69-8,3a80.46,80.46,0,0,1-24.85.39.25.25,0,0,0-.27.14.25.25,0,0,0,.07.3c.05,0,1.4,1.09,7.88,1.51,1.74.11,3.67.17,5.66.17,9.12,0,19.63-1.32,19.95-5.41A.25.25,0,0,0,56.57,58.05Z"></path> </g> </g> </g> </svg> 