<?xml version="1.0" encoding="UTF-8"?> <svg xmlns="http://www.w3.org/2000/svg" viewBox="0 0 72.48 72.48"> <defs> <style>.cls-1{fill:#191919;}.cls-2{fill:#fddd09;}</style> </defs> <title>Asset 1</title> <g id="Layer_2" data-name="Layer 2"> <g id="Logo_background" data-name="Logo+background"> <g id="frontend"> <rect class="cls-1" width="72.48" height="72.48" rx="11.34"></rect> <path class="cls-2" d="M43.64,24.24a1.71,1.71,0,0,0-1.45.82L28.56,47.14h0a1.7,1.7,0,1,0,2.93,1.71h0L45,26.91a1.63,1.63,0,0,0,.31-1A1.7,1.7,0,0,0,43.64,24.24Z"></path> <path class="cls-2" d="M23.61,48.74A1.54,1.54,0,0,1,21.86,47V39.72a5.72,5.72,0,0,0-1-3.46,5.92,5.92,0,0,0,1-3.49V25.5a1.54,1.54,0,0,1,1.75-1.75A1.64,1.64,0,0,0,25.32,22a1.8,1.8,0,0,0-.47-1.26,1.64,1.64,0,0,0-1.24-.51c-3.47,0-5.23,1.76-5.23,5.23v7.27a1.52,1.52,0,0,1-1.72,1.75,1.69,1.69,0,0,0-1.74,1.74,1.63,1.63,0,0,0,.49,1.23,1.73,1.73,0,0,0,1.25.48,1.52,1.52,0,0,1,1.72,1.75V47c0,3.48,1.76,5.24,5.23,5.24a1.64,1.64,0,0,0,1.23-.5,1.85,1.85,0,0,0,0-2.49A1.64,1.64,0,0,0,23.61,48.74Z"></path> <path class="cls-2" d="M49.92,48.74A1.54,1.54,0,0,0,51.68,47V39.72a5.72,5.72,0,0,1,1-3.46,5.92,5.92,0,0,1-1-3.49V25.5a1.54,1.54,0,0,0-1.76-1.75,1.66,1.66,0,0,1-1.22-.48A1.68,1.68,0,0,1,48.22,22a1.8,1.8,0,0,1,.47-1.26,1.63,1.63,0,0,1,1.23-.51c3.48,0,5.24,1.76,5.24,5.23v7.27a1.52,1.52,0,0,0,1.72,1.75,1.69,1.69,0,0,1,1.74,1.74,1.64,1.64,0,0,1-.5,1.23,1.69,1.69,0,0,1-1.24.48,1.52,1.52,0,0,0-1.72,1.75V47c0,3.48-1.76,5.24-5.24,5.24a1.66,1.66,0,0,1-1.23-.5,1.88,1.88,0,0,1,0-2.49A1.66,1.66,0,0,1,49.92,48.74Z"></path> </g> </g> </g> </svg> 