<?xml version="1.0" encoding="UTF-8"?> <svg xmlns="http://www.w3.org/2000/svg" viewBox="0 0 72.48 72.48"> <defs> <style>.cls-1{fill:#191919;}.cls-2{fill:#fddd09;}</style> </defs> <title>Asset 2</title> <g id="Layer_2" data-name="Layer 2"> <g id="Logo_background" data-name="Logo+background"> <g id="python"> <rect class="cls-1" width="72.48" height="72.48" rx="11.34"></rect> <path class="cls-2" d="M51.94,26.24H49.18c0,11.44-4,11.61-13.37,11.61-8.36,0-9.87,0-9.87,9.19h0v5.2c0,2.87,4.66,5.2,10.4,5.2s10.4-2.33,10.4-5.2v-2.8H36.34V47h15.6c2.87,0,5.2-4.66,5.2-10.4S54.81,26.24,51.94,26.24ZM42.06,50.41a2.31,2.31,0,1,1-2.31,2.31A2.3,2.3,0,0,1,42.06,50.41Z"></path> <path class="cls-2" d="M35.81,35.45c9.51,0,10.93-.25,10.93-9.45V21c0-2.87-4.66-5.2-10.4-5.2s-10.4,2.33-10.4,5.2v2.8h10.4v2.4H20.74c-2.87,0-5.2,4.66-5.2,10.4S17.87,47,20.74,47h2.8C23.54,35.45,27.38,35.45,35.81,35.45ZM30.62,22.87a2.31,2.31,0,1,1,2.31-2.31A2.3,2.3,0,0,1,30.62,22.87Z"></path> </g> </g> </g> </svg> 