<?xml version="1.0" encoding="UTF-8"?> <svg xmlns="http://www.w3.org/2000/svg" viewBox="0 0 72.48 72.48"> <title>Ресурс 4</title> <g id="Слой_2" data-name="Слой 2"> <g id="Logo_background" data-name="Logo+background"> <g id="ui_ux" data-name="ui ux"> <rect width="72.48" height="72.48" rx="11.34" ry="11.34" fill="#191919"></rect> <path d="M15.93,29.75c4,2.38,13.84,8.22,18.75,11a3.94,3.94,0,0,0,3.94,0c4.91-2.81,14.75-8.65,18.75-11a3,3,0,0,0,0-5.15c-3.09-1.84-13.58-8.07-18.75-11a3.91,3.91,0,0,0-2-.53,4.09,4.09,0,0,0-2,.53s-14.06,8.26-18.74,11a3,3,0,0,0,0,5.15Z" fill="#fddd09"></path> <path d="M57.4,33.71a1,1,0,0,0-1,0c-5.44,3.23-12.75,7.56-16.74,9.84a6.05,6.05,0,0,1-5.95,0c-4-2.31-11.32-6.62-16.74-9.84a1,1,0,0,0-1,0,3,3,0,0,0,0,5.12c4,2.38,13.84,8.22,18.75,11a3.94,3.94,0,0,0,3.94,0c4.91-2.81,14.75-8.65,18.75-11a3,3,0,0,0,0-5.12Z" fill="#fddd09"></path> <path d="M57.4,42.79a1,1,0,0,0-1,0C50.92,46,43.6,50.33,39.62,52.62a6.05,6.05,0,0,1-5.95,0c-4-2.31-11.32-6.62-16.74-9.84a1,1,0,0,0-1,0,3,3,0,0,0,0,5.12c4,2.38,13.84,8.22,18.75,11a3.94,3.94,0,0,0,3.94,0c4.91-2.81,14.75-8.65,18.75-11a3,3,0,0,0,0-5.12Z" fill="#fddd09"></path> </g> </g> </g> </svg> 